<?xml version="1.0" standalone="no"?>
<!DOCTYPE svg PUBLIC "-//W3C//DTD SVG 20010904//EN"
 "http://www.w3.org/TR/2001/REC-SVG-20010904/DTD/svg10.dtd">
<svg version="1.0" xmlns="http://www.w3.org/2000/svg"
 width="700.000000pt" height="700.000000pt" viewBox="0 0 700.000000 700.000000"
 preserveAspectRatio="xMidYMid meet">
<metadata>
Created by potrace 1.14, written by Peter Selinger 2001-2017
</metadata>
<g transform="translate(0.000000,700.000000) scale(0.100000,-0.100000)"
fill="#000000" stroke="none">
<path d="M865 6985 c-111 -20 -183 -44 -281 -91 -278 -134 -478 -383 -557
-693 l-22 -86 0 -2595 c0 -1427 3 -2616 7 -2642 11 -79 48 -198 85 -277 132
-282 371 -481 681 -569 l97 -27 2625 0 2625 0 96 27 c404 114 685 417 763 823
13 71 15 384 15 2645 0 2729 2 2614 -45 2770 -9 30 -33 89 -52 130 -132 280
-376 484 -679 568 l-98 27 -2595 1 c-2084 2 -2609 -1 -2665 -11z"/>
</g>
</svg>
